<svg width="5" height="9" viewBox="0 0 5 9" fill="none" xmlns="http://www.w3.org/2000/svg">
<path d="M1.74316 5.99805C1.74967 5.61068 1.79362 5.30469 1.875 5.08008C1.95638 4.85547 2.1224 4.60645 2.37305 4.33301L3.0127 3.67383C3.28613 3.36458 3.42285 3.03255 3.42285 2.67773C3.42285 2.33594 3.33333 2.06901 3.1543 1.87695C2.97526 1.68164 2.71484 1.58398 2.37305 1.58398C2.04102 1.58398 1.77409 1.67188 1.57227 1.84766C1.37044 2.02344 1.26953 2.25944 1.26953 2.55566H0.366211C0.372721 2.02832 0.559896 1.60352 0.927734 1.28125C1.29883 0.955729 1.7806 0.792969 2.37305 0.792969C2.98828 0.792969 3.4668 0.958984 3.80859 1.29102C4.15365 1.61979 4.32617 2.07227 4.32617 2.64844C4.32617 3.2181 4.0625 3.77962 3.53516 4.33301L3.00293 4.86035C2.7653 5.12402 2.64648 5.50326 2.64648 5.99805H1.74316ZM1.7041 7.5459C1.7041 7.39941 1.74805 7.27734 1.83594 7.17969C1.92708 7.07878 2.06055 7.02832 2.23633 7.02832C2.41211 7.02832 2.54557 7.07878 2.63672 7.17969C2.72786 7.27734 2.77344 7.39941 2.77344 7.5459C2.77344 7.69238 2.72786 7.81445 2.63672 7.91211C2.54557 8.00651 2.41211 8.05371 2.23633 8.05371C2.06055 8.05371 1.92708 8.00651 1.83594 7.91211C1.74805 7.81445 1.7041 7.69238 1.7041 7.5459Z" fill="black"/>
</svg>
